HIERARCHY
ROOT pelvis
{
	OFFSET 0.003123 -0.351407 0.012037
	CHANNELS 6 Xposition Yposition Zposition Zrotation Yrotation Xrotation 
	JOINT left_hip
	{
		OFFSET 0.058189 -0.092763 -0.026001
		CHANNELS 3 Zrotation Yrotation Xrotation
		JOINT left_knee
		{
			OFFSET 0.054695 -0.378753 -0.009396
			CHANNELS 3 Zrotation Yrotation Xrotation
			JOINT left_ankle
			{
				OFFSET -0.043453 -0.403059 -0.031876
				CHANNELS 3 Zrotation Yrotation Xrotation
				JOINT left_foot
				{
					OFFSET 0.047257 -0.057997 0.118216
					CHANNELS 3 Zrotation Yrotation Xrotation
					End Site
					{
						OFFSET 0.000000 0.000000 0.000000
					}
				}
			}
		}
	}
	JOINT right_hip
	{
		OFFSET -0.063267 -0.103908 -0.021250
		CHANNELS 3 Zrotation Yrotation Xrotation
		JOINT right_knee
		{
			OFFSET -0.044210 -0.362380 -0.016824
			CHANNELS 3 Zrotation Yrotation Xrotation
			JOINT right_ankle
			{
				OFFSET 0.015417 -0.410728 -0.020192
				CHANNELS 3 Zrotation Yrotation Xrotation
				JOINT right_foot
				{
					OFFSET -0.038812 -0.058328 0.119049
					CHANNELS 3 Zrotation Yrotation Xrotation
					End Site
					{
						OFFSET 0.000000 0.000000 0.000000
					}
				}
			}
		}
	}
	JOINT spine_1
	{
		OFFSET -0.002763 0.109891 -0.027618
		CHANNELS 3 Zrotation Yrotation Xrotation
		JOINT spine_2
		{
			OFFSET 0.009448 0.131853 -0.005940
			CHANNELS 3 Zrotation Yrotation Xrotation
			JOINT spine_3
			{
				OFFSET -0.011330 0.052235 0.028447
				CHANNELS 3 Zrotation Yrotation Xrotation
				JOINT neck
				{
					OFFSET -0.012164 0.165167 -0.031615
					CHANNELS 3 Zrotation Yrotation Xrotation
					JOINT head
					{
						OFFSET 0.024783 0.160452 0.020737
						CHANNELS 3 Zrotation Yrotation Xrotation
						End Site
						{
							OFFSET 0.000000 0.000000 0.000000
						}
					}
				}
				JOINT left_collar
				{
					OFFSET 0.046364 0.084944 -0.007220
					CHANNELS 3 Zrotation Yrotation Xrotation
					JOINT left_shoulder
					{
						OFFSET 0.119239 0.057728 -0.015461
						CHANNELS 3 Zrotation Yrotation Xrotation
						JOINT left_elbow
						{
							OFFSET 0.254123 -0.072151 -0.042459
							CHANNELS 3 Zrotation Yrotation Xrotation
							JOINT left_wrist
							{
								OFFSET 0.251987 0.023221 -0.002472
								CHANNELS 3 Zrotation Yrotation Xrotation
								JOINT left_index_1
								{
									OFFSET 0.101902 -0.008688 0.019351
									CHANNELS 3 Zrotation Yrotation Xrotation
									JOINT left_index_2
									{
										OFFSET 0.030149 -0.011154 0.001151
										CHANNELS 3 Zrotation Yrotation Xrotation
										JOINT left_index_3
										{
											OFFSET 0.006504 -0.021577 -0.002433
											CHANNELS 3 Zrotation Yrotation Xrotation
											End Site
											{
												OFFSET 0.000000 0.000000 0.000000
											}
										}
									}
								}
								JOINT left_middle_1
								{
									OFFSET 0.109398 -0.006328 -0.003981
									CHANNELS 3 Zrotation Yrotation Xrotation
									JOINT left_middle_2
									{
										OFFSET 0.026472 -0.015218 -0.004641
										CHANNELS 3 Zrotation Yrotation Xrotation
										JOINT left_middle_3
										{
											OFFSET 0.005022 -0.023347 -0.001911
											CHANNELS 3 Zrotation Yrotation Xrotation
											End Site
											{
												OFFSET 0.000000 0.000000 0.000000
											}
										}
									}
								}
								JOINT left_pinky_1
								{
									OFFSET 0.084047 -0.014539 -0.043750
									CHANNELS 3 Zrotation Yrotation Xrotation
									JOINT left_pinky_2
									{
										OFFSET 0.012124 -0.014448 -0.005375
										CHANNELS 3 Zrotation Yrotation Xrotation
										JOINT left_pinky_3
										{
											OFFSET 0.003798 -0.018853 0.000167
											CHANNELS 3 Zrotation Yrotation Xrotation
											End Site
											{
												OFFSET 0.000000 0.000000 0.000000
											}
										}
									}
								}
								JOINT left_ring_1
								{
									OFFSET 0.097444 -0.009268 -0.027345
									CHANNELS 3 Zrotation Yrotation Xrotation
									JOINT left_ring_2
									{
										OFFSET 0.023561 -0.016057 -0.001895
										CHANNELS 3 Zrotation Yrotation Xrotation
										JOINT left_ring_3
										{
											OFFSET 0.004257 -0.023548 0.000814
											CHANNELS 3 Zrotation Yrotation Xrotation
											End Site
											{
												OFFSET 0.000000 0.000000 0.000000
											}
										}
									}
								}
								JOINT left_thumb_1
								{
									OFFSET 0.040636 -0.017977 0.025611
									CHANNELS 3 Zrotation Yrotation Xrotation
									JOINT left_thumb_2
									{
										OFFSET 0.021637 -0.017639 0.011623
										CHANNELS 3 Zrotation Yrotation Xrotation
										JOINT left_thumb_3
										{
											OFFSET 0.024002 -0.008356 0.006548
											CHANNELS 3 Zrotation Yrotation Xrotation
											End Site
											{
												OFFSET 0.000000 0.000000 0.000000
											}
										}
									}
								}
							}
						}
					}
				}
				JOINT right_collar
				{
					OFFSET -0.047695 0.084339 -0.013400
					CHANNELS 3 Zrotation Yrotation Xrotation
					JOINT right_shoulder
					{
						OFFSET -0.102578 0.053524 -0.012669
						CHANNELS 3 Zrotation Yrotation Xrotation
						JOINT right_elbow
						{
							OFFSET -0.271150 -0.036492 -0.026467
							CHANNELS 3 Zrotation Yrotation Xrotation
							JOINT right_wrist
							{
								OFFSET -0.249267 -0.004533 -0.015325
								CHANNELS 3 Zrotation Yrotation Xrotation
								JOINT right_index_1
								{
									OFFSET -0.099881 -0.011783 0.019600
									CHANNELS 3 Zrotation Yrotation Xrotation
									JOINT right_index_2
									{
										OFFSET -0.030148 -0.011154 0.001151
										CHANNELS 3 Zrotation Yrotation Xrotation
										JOINT right_index_3
										{
											OFFSET -0.006505 -0.021577 -0.002432
											CHANNELS 3 Zrotation Yrotation Xrotation
											End Site
											{
												OFFSET 0.000000 0.000000 0.000000
											}
										}
									}
								}
								JOINT right_middle_1
								{
									OFFSET -0.107376 -0.009422 -0.003734
									CHANNELS 3 Zrotation Yrotation Xrotation
									JOINT right_middle_2
									{
										OFFSET -0.026472 -0.015218 -0.004641
										CHANNELS 3 Zrotation Yrotation Xrotation
										JOINT right_middle_3
										{
											OFFSET -0.005022 -0.023347 -0.001911
											CHANNELS 3 Zrotation Yrotation Xrotation
											End Site
											{
												OFFSET 0.000000 0.000000 0.000000
											}
										}
									}
								}
								JOINT right_pinky_1
								{
									OFFSET -0.082027 -0.017634 -0.043503
									CHANNELS 3 Zrotation Yrotation Xrotation
									JOINT right_pinky_2
									{
										OFFSET -0.012123 -0.014448 -0.005374
										CHANNELS 3 Zrotation Yrotation Xrotation
										JOINT right_pinky_3
										{
											OFFSET -0.003798 -0.018852 0.000167
											CHANNELS 3 Zrotation Yrotation Xrotation
											End Site
											{
												OFFSET 0.000000 0.000000 0.000000
											}
										}
									}
								}
								JOINT right_ring_1
								{
									OFFSET -0.095423 -0.012362 -0.027099
									CHANNELS 3 Zrotation Yrotation Xrotation
									JOINT right_ring_2
									{
										OFFSET -0.023561 -0.016057 -0.001895
										CHANNELS 3 Zrotation Yrotation Xrotation
										JOINT right_ring_3
										{
											OFFSET -0.004257 -0.023548 0.000816
											CHANNELS 3 Zrotation Yrotation Xrotation
											End Site
											{
												OFFSET 0.000000 0.000000 0.000000
											}
										}
									}
								}
								JOINT right_thumb_1
								{
									OFFSET -0.038613 -0.021074 0.025861
									CHANNELS 3 Zrotation Yrotation Xrotation
									JOINT right_thumb_2
									{
										OFFSET -0.021636 -0.017639 0.011623
										CHANNELS 3 Zrotation Yrotation Xrotation
										JOINT right_thumb_3
										{
											OFFSET -0.024004 -0.008353 0.006547
											CHANNELS 3 Zrotation Yrotation Xrotation
											End Site
											{
												OFFSET 0.000000 0.000000 0.000000
											}
										}
									}
								}
							}
						}
					}
				}
			}
		}
	}
}
MOTION
Frames: 7
Frame Time: 0.050000
-0.216686 1.051342 -0.164398 6.123563 -14.619473 -55.595204 17.598157 3.817965 59.227560 10.745838 -1.864146 4.197065 -27.250490 -6.766771 43.851739 0.000000 0.000000 0.000000 -14.478052 5.559060 55.124696 -1.801600 0.330316 4.464474 6.670959 -10.726069 37.609786 0.000000 0.000000 0.000000 14.046711 -18.397348 108.426317 -0.290601 -15.598551 -63.388052 -9.107219 -10.775850 24.068379 -5.566354 1.586327 -4.481587 0.000000 0.000000 0.000000 1.015960 -2.723721 1.167199 -48.616541 -24.224449 -4.664219 7.548403 -20.628682 1.225875 -8.583166 1.277552 10.730162 166.518409 52.105243 -106.451832 -109.113199 -69.723188 -27.871518 0.000000 0.000000 0.000000 -149.392547 51.338424 -65.686460 10.324341 -36.312038 -126.760012 0.000000 0.000000 0.000000 -110.038800 -21.101465 -29.191973 108.682437 6.224154 -10.303383 0.000000 0.000000 0.000000 -128.138156 -11.499603 -4.354287 170.821478 24.422058 -7.394145 0.000000 0.000000 0.000000 -21.835506 -16.604011 -5.461464 88.879717 38.888236 21.092757 0.000000 0.000000 0.000000 10.938877 -8.998413 -6.804105 33.870360 2.163826 -5.175484 -7.799882 6.446641 -0.082497 -5.301934 -2.349327 -10.384046 49.581164 4.150270 4.075492 22.191406 -11.050191 41.570916 0.000000 0.000000 0.000000 45.872692 -5.030577 -5.736244 1.823164 5.123227 -32.142710 0.000000 0.000000 0.000000 76.240351 -14.762265 -9.874807 -59.315395 -17.943379 -66.427227 0.000000 0.000000 0.000000 52.486581 13.506207 -3.766057 -45.719055 -2.354597 15.786271 0.000000 0.000000 0.000000 10.497016 17.617801 -1.990910 -48.701440 -43.687932 44.984474 0.000000 0.000000 0.000000 
-0.259087 1.050697 -0.185516 7.048406 -12.453249 -56.356091 19.193808 2.680234 59.406636 9.716491 -2.234453 6.829000 -27.470748 -4.826456 45.897418 0.000000 0.000000 0.000000 -15.000301 5.713195 56.562629 -0.775796 0.347441 6.265199 5.096057 -12.010081 37.728309 0.000000 0.000000 0.000000 11.847712 -16.460904 108.591045 -5.444980 -14.076618 -58.714685 -5.956511 -16.153840 20.087091 -10.330014 2.516105 -2.079082 0.000000 0.000000 0.000000 0.254296 -1.881465 0.689129 -48.990734 -23.745739 -3.684435 7.461403 -21.611539 1.353503 4.337693 2.224819 9.468060 -9.667327 3.480406 1.289870 30.990262 -4.056094 -7.408093 0.000000 0.000000 0.000000 -5.104807 -2.439941 -2.101003 12.985552 -1.744398 -4.078011 0.000000 0.000000 0.000000 18.662285 -21.425353 -22.930965 -13.886581 3.462308 15.440073 0.000000 0.000000 0.000000 -0.634720 -10.221075 -6.471118 8.664010 0.171692 1.888312 0.000000 0.000000 0.000000 4.811940 3.853785 1.048140 -10.712679 -3.457777 2.150742 0.000000 0.000000 0.000000 11.840433 -10.307365 -8.731209 29.855750 -2.060071 -5.140204 -4.446682 6.189563 -0.124153 -3.333859 -8.269552 -11.119970 42.328161 11.457067 3.560763 1.556724 -0.259577 -2.276457 0.000000 0.000000 0.000000 40.632843 14.744629 -7.489902 -7.757299 0.730125 -5.033077 0.000000 0.000000 0.000000 36.448074 -17.642881 4.013129 -9.651514 10.444613 -51.117869 0.000000 0.000000 0.000000 38.522748 14.960703 -5.760454 -9.085386 0.483653 -6.801563 0.000000 0.000000 0.000000 4.715570 6.057706 -0.970694 -19.331340 -33.139834 19.746322 0.000000 0.000000 0.000000 
-0.279816 1.051342 -0.190796 7.647376 -4.158398 -54.516862 16.464006 2.118285 51.671201 11.794429 -3.891831 12.914053 -26.844496 -4.108744 44.733964 0.000000 0.000000 0.000000 -15.867823 4.307444 56.525242 -0.180359 0.269246 6.392007 3.343025 -12.384703 35.989497 0.000000 0.000000 0.000000 12.600436 -18.805216 104.753469 -2.861882 -13.885542 -65.374610 -13.201151 -14.995781 25.937034 -9.868441 2.354971 -0.434282 0.000000 0.000000 0.000000 -3.262668 -5.646437 2.922503 -43.385112 -23.815282 -5.008475 5.275701 -20.408544 1.540998 -0.793606 1.460520 12.137891 -12.178578 1.914596 0.844671 2.700861 0.985753 3.491029 0.000000 0.000000 0.000000 -23.933616 3.178279 -3.133215 -3.448118 -3.054109 -15.246775 0.000000 0.000000 0.000000 -43.832305 -5.720478 -20.143996 86.991090 22.497731 -0.834301 0.000000 0.000000 0.000000 -23.950651 -11.925682 -6.291784 -16.961227 1.813694 13.511888 0.000000 0.000000 0.000000 -1.897760 1.274060 1.988969 3.503763 2.030641 -0.415882 0.000000 0.000000 0.000000 13.430891 -12.333413 -10.244946 28.529075 -5.068938 -5.255345 -4.990326 4.392013 0.014977 -0.948850 -7.756888 -9.487251 13.159011 9.173376 -1.269854 7.515685 -1.213382 1.725353 0.000000 0.000000 0.000000 11.587821 9.702658 -6.304868 13.393316 -0.354593 -0.506133 0.000000 0.000000 0.000000 8.182931 2.875992 -6.673001 -6.732407 0.317640 -1.583106 0.000000 0.000000 0.000000 16.882603 8.319172 -5.294006 -9.879805 -1.244353 4.071296 0.000000 0.000000 0.000000 -3.500690 -6.276901 2.749241 1.043673 0.030331 0.121288 0.000000 0.000000 0.000000 
-0.285469 1.050053 -0.185516 8.879852 -0.647476 -54.387450 14.359642 2.643020 48.364203 14.316319 -5.426291 16.624172 -27.861582 -4.017625 45.736262 0.000000 0.000000 0.000000 -17.008066 4.417865 56.136004 0.492897 0.195781 6.852179 3.123567 -11.771953 34.546676 0.000000 0.000000 0.000000 14.206064 -20.525374 102.980141 -6.636795 -13.896663 -68.010449 -15.796620 -17.557513 34.465271 -4.889063 1.144016 -1.431540 0.000000 0.000000 0.000000 -2.397635 -9.129142 4.698706 -41.412917 -30.468854 -4.068842 6.329663 -15.790778 1.113597 -7.404330 4.614833 8.738965 -14.066932 15.215276 5.325719 -71.390876 2.884516 -7.365303 0.000000 0.000000 0.000000 -48.281206 28.709715 -3.170925 -5.934353 -35.310566 -88.063427 0.000000 0.000000 0.000000 -75.522545 5.983892 -21.358042 89.823358 25.591032 -37.852549 0.000000 0.000000 0.000000 -68.789162 -1.720115 -6.364415 68.166177 64.967342 -111.260650 0.000000 0.000000 0.000000 -15.429164 4.236241 10.081543 36.294755 12.028023 -3.685617 0.000000 0.000000 0.000000 14.505511 -16.996465 -14.595268 24.349331 -0.362783 -4.020396 -0.836363 0.743208 0.035108 1.742029 -8.121141 -6.985695 8.951856 3.826877 -0.734762 -20.275592 1.471311 4.283033 0.000000 0.000000 0.000000 3.987235 6.793843 -4.441837 -11.207028 0.995673 -2.509669 0.000000 0.000000 0.000000 -19.105044 3.749121 4.027017 -5.553636 0.749777 -4.842000 0.000000 0.000000 0.000000 0.942777 0.590515 -0.504985 -17.108625 -0.305891 -10.053838 0.000000 0.000000 0.000000 -12.320824 -8.461297 0.925266 14.952400 1.362494 3.494616 0.000000 0.000000 0.000000 
-0.291122 1.055210 -0.193436 11.042424 8.746153 -53.394575 9.512191 3.508987 45.517528 19.151277 -7.486717 18.304040 -29.569626 -6.150624 43.991729 0.000000 0.000000 0.000000 -21.237278 4.672244 55.761859 2.595593 -0.101329 8.273933 1.722761 -13.080773 36.796183 0.000000 0.000000 0.000000 12.283191 -22.290416 104.116268 -5.985542 -12.991518 -71.499799 -20.203746 -23.434674 37.259234 -8.193056 1.749346 2.940296 0.000000 0.000000 0.000000 0.171190 -10.130581 4.886086 -41.608175 -32.561380 -2.398494 4.263106 -13.334749 1.110229 -12.792618 5.255947 7.481880 3.105639 48.713166 30.747465 -79.258860 -22.716952 -21.258210 0.000000 0.000000 0.000000 -64.859089 46.234056 -7.376965 20.710182 -18.645853 -98.611018 0.000000 0.000000 0.000000 -79.611799 -11.354281 -25.188581 80.483547 -7.733997 13.067297 0.000000 0.000000 0.000000 -84.111739 -3.316473 -6.773492 138.337529 -1.559162 6.707092 0.000000 0.000000 0.000000 -15.684551 7.688929 13.045241 57.638706 13.708829 -7.109676 0.000000 0.000000 0.000000 16.401098 -17.604551 -17.579720 21.752813 0.705574 -3.252620 0.422185 -0.833493 -0.002192 -1.630140 -7.572331 -7.614005 14.213042 6.614043 -0.893115 -14.514386 -2.071471 19.314746 0.000000 0.000000 0.000000 4.482463 2.583629 -2.078366 15.497594 2.111927 -8.814388 0.000000 0.000000 0.000000 -20.941098 4.096043 4.329135 12.932717 6.265146 -17.694073 0.000000 0.000000 0.000000 8.413664 -0.645373 -0.217887 -22.978375 -0.541884 -29.417546 0.000000 0.000000 0.000000 -10.281028 -3.739520 -2.561197 1.619155 -7.310111 3.098474 0.000000 0.000000 0.000000 
-0.308083 1.057144 -0.190796 10.775421 3.503973 -54.498017 16.925217 1.325085 48.253633 18.126480 -7.376369 19.206768 -29.256314 -6.844905 43.517749 0.000000 0.000000 0.000000 -18.264419 4.453420 53.770938 1.839094 0.079160 11.194063 1.433129 -12.692226 33.189305 0.000000 0.000000 0.000000 16.003230 -24.587238 105.258906 -6.954382 -13.581897 -69.394631 -20.866975 -21.502504 35.136039 -5.281474 0.953928 1.427236 0.000000 0.000000 0.000000 -0.870418 -8.941640 4.461801 -41.594026 -30.066422 -3.203831 4.004980 -17.641587 1.489911 -8.082366 2.875481 11.839241 0.233656 35.352992 18.669726 -66.422137 -7.124749 -15.897687 0.000000 0.000000 0.000000 -42.908090 36.441791 -0.313113 5.979145 -16.576108 -63.525693 0.000000 0.000000 0.000000 -71.095905 -6.793265 -25.759669 73.277080 -0.594373 5.314789 0.000000 0.000000 0.000000 -63.328139 3.482100 -6.495705 92.085616 20.854526 -22.319803 0.000000 0.000000 0.000000 -12.156500 12.587695 15.515338 56.427504 11.020945 -13.106521 0.000000 0.000000 0.000000 17.661383 -14.899396 -15.636533 23.667910 -0.033702 -3.609234 -4.370402 -1.618153 0.331980 -0.542673 -4.999726 -11.400171 17.789825 0.537884 0.635887 3.219255 -6.412824 21.799230 0.000000 0.000000 0.000000 13.924650 7.714753 -5.511696 8.934556 -2.811176 7.018539 0.000000 0.000000 0.000000 -17.072509 11.438672 -13.361613 7.468985 -0.178625 -0.206195 0.000000 0.000000 0.000000 5.629664 7.820781 -5.503883 -6.203819 0.229284 -3.827501 0.000000 0.000000 0.000000 -18.079072 -11.618877 -0.009585 19.685301 -5.003666 5.757666 0.000000 0.000000 0.000000 
-0.309967 1.061657 -0.193436 12.377582 9.866976 -52.722007 14.413970 1.246867 43.108269 22.472918 -9.310632 20.283097 -29.878921 -7.685370 42.436771 0.000000 0.000000 0.000000 -21.984131 4.753985 54.887992 5.801096 -0.551525 8.238572 -0.697927 -14.908888 34.638800 0.000000 0.000000 0.000000 20.428517 -28.663872 98.208249 -12.121227 -12.444512 -69.533387 -27.378296 -29.587287 35.461357 -6.882937 1.212147 6.462597 0.000000 0.000000 0.000000 -6.062979 -8.633096 6.024568 -42.080458 -26.813001 -2.674463 2.719877 -16.233082 1.523878 -7.102197 3.482554 13.047866 23.301716 32.372866 25.615794 -78.620273 -7.274413 -14.803004 0.000000 0.000000 0.000000 -21.584407 40.461957 12.007679 -15.993828 -33.453054 -75.843569 0.000000 0.000000 0.000000 -58.387239 3.917587 -19.515173 72.226734 18.741156 -27.317366 0.000000 0.000000 0.000000 -47.280918 10.772841 -2.765960 11.253757 -13.251436 -122.513534 0.000000 0.000000 0.000000 -18.024619 6.294552 11.726012 70.924845 20.356877 -7.677602 0.000000 0.000000 0.000000 16.882150 -14.303819 -17.292248 19.355869 0.281974 -2.682525 -3.573528 -2.199861 0.315683 0.826294 -4.729196 -6.514902 163.928206 -54.793767 -68.868634 76.293006 73.416521 -58.698915 0.000000 0.000000 0.000000 108.976585 -43.568964 -27.741082 -8.580975 34.239054 -124.890044 0.000000 0.000000 0.000000 111.987771 70.614324 5.272101 -21.082873 27.607444 147.310241 0.000000 0.000000 0.000000 98.733992 62.147978 17.923162 -18.227635 -19.729303 149.068715 0.000000 0.000000 0.000000 -115.587462 -66.884995 -143.147771 -138.099867 -35.532118 -21.705799 0.000000 0.000000 0.000000 
